<svg width="87" height="113" viewBox="0 0 87 113" fill="none" xmlns="http://www.w3.org/2000/svg">
<path d="M47.9729 73.0369H41.1067L39.2859 79.6606H46.152L47.9729 73.0369Z" fill="#413636"/>
<path d="M43.0537 113C66.793 113 86.1077 93.4644 86.1077 69.725C86.1077 48.8835 76.1852 34.9472 66.8835 28.8444C66.8835 28.8411 66.8771 28.838 66.8705 28.8347V28.8314C65.3376 27.8385 63.2871 28.2524 62.2845 29.7887C61.2819 31.3186 61.7089 33.369 63.2354 34.3716C65.1177 35.6039 66.2368 37.6771 66.2368 39.9183C66.2368 43.5698 63.2679 46.542 59.6131 46.542C55.9584 46.542 52.9894 43.5698 52.9894 39.9183C52.9894 39.0193 53.1641 37.8615 53.3517 36.4998C54.4837 28.2688 56.5859 12.724 38.2674 0.511699C37.2462 -0.168998 35.6015 -0.238326 34.3936 0.719021C33.6544 1.3114 33.1185 2.14621 33.1185 3.26716C33.1185 18.5328 25.4858 26.3022 17.4067 34.2972C8.84883 42.7612 7.57144e-09 51.5162 7.57144e-09 69.0167V69.725C-0.000441573 93.4644 19.3145 113 43.0537 113ZM28.0662 79.6606H32.4131L34.234 73.0369H31.7145C29.884 73.0369 28.4027 71.5556 28.4027 69.725C28.4027 67.8944 29.884 66.4132 31.7145 66.4132H36.0548L37.2062 62.2248C37.6913 60.4589 39.5025 59.4143 41.2814 59.9091C43.0408 60.3942 44.0823 62.2151 43.597 63.9779L42.9276 66.4132H49.7939L50.9454 62.2248C51.4304 60.4589 53.2416 59.4143 55.0205 59.9091C56.78 60.3942 57.8214 62.2151 57.3361 63.9779L56.6667 66.4132H59.1925C61.0231 66.4132 62.5044 67.8944 62.5044 69.725C62.5044 71.5556 61.0231 73.0369 59.1925 73.0369H54.8456L53.0248 79.6606H55.5506C57.3812 79.6606 58.8625 81.1419 58.8625 82.9724C58.8625 84.803 57.3812 86.2843 55.5506 86.2843H51.2037L50.0523 90.4727C49.572 92.2068 47.7808 93.2785 45.9771 92.7883C44.2177 92.3033 43.1762 90.4824 43.6615 88.7196L44.3309 86.2843H37.4646L36.3131 90.4727C35.8329 92.2068 34.0417 93.2785 32.238 92.7883C30.4785 92.3033 29.4371 90.4824 29.9224 88.7196L30.5918 86.2843H28.066C26.2354 86.2843 24.7541 84.803 24.7541 82.9724C24.7541 81.1419 26.2356 79.6606 28.0662 79.6606ZM16.5588 20.0472C18.3894 20.0472 19.8707 18.5659 19.8707 16.7354V10.1117C19.8707 8.28109 18.3894 6.7998 16.5588 6.7998C14.7283 6.7998 13.247 8.28109 13.247 10.1117V16.7354C13.247 18.5659 14.7283 20.0472 16.5588 20.0472ZM66.2366 16.7354V10.1117C66.2366 8.28109 64.7553 6.7998 62.9248 6.7998C61.0942 6.7998 59.6129 8.28109 59.6129 10.1117V16.7354C59.6129 18.5659 61.0942 20.0472 62.9248 20.0472C64.7553 20.0472 66.2366 18.5659 66.2366 16.7354Z" fill="#413636"/>
</svg>
