<svg width="169" height="169" viewBox="0 0 169 169" fill="none" xmlns="http://www.w3.org/2000/svg">
<path d="M23.0622 21.4904C3.44972 28.9297 4.12605 48.5422 6.15473 68.155C8.18374 87.7674 35.2356 110.762 55.6204 114.143C72.6252 116.964 97.4249 121.195 105.184 122.522L125.344 142.682C121.621 148.136 122.175 155.652 127.007 160.485C132.469 165.947 141.354 165.948 146.813 160.489C149.206 158.096 150.617 154.922 150.868 151.62C154.17 151.369 157.345 149.958 159.738 147.565C162.461 144.841 163.822 141.264 163.822 137.685C163.822 134.097 162.454 130.507 159.72 127.772C154.523 122.575 146.216 122.331 140.71 127.035L122.881 109.206C123.201 102.699 122.369 95.1081 123.276 89.1201C125.427 74.918 103.542 32.3114 87.9869 14.7277C72.4322 -2.85611 42.6746 14.051 23.0622 21.4904ZM138.454 134.339C138.809 134.694 139.238 134.965 139.711 135.133C140.183 135.302 140.688 135.362 141.187 135.312C142.197 135.208 143.108 134.619 143.667 133.771C143.964 133.319 144.303 132.834 144.672 132.496H144.673C147.508 129.792 152.114 129.689 154.94 132.515C157.766 135.341 157.773 139.95 154.957 142.766C153.132 144.591 150.545 145.309 148.036 144.67C147.468 144.527 146.872 144.533 146.307 144.689C145.742 144.845 145.227 145.146 144.813 145.561C144.398 145.976 144.099 146.492 143.943 147.057C143.788 147.623 143.782 148.219 143.927 148.788C144.565 151.296 143.857 153.883 142.033 155.708C141.362 156.383 140.564 156.918 139.685 157.282C138.805 157.646 137.863 157.832 136.911 157.829C135.959 157.831 135.016 157.645 134.136 157.28C133.257 156.915 132.458 156.38 131.787 155.704C128.961 152.879 128.965 148.278 131.794 145.448C131.886 145.357 131.953 145.297 132.059 145.201L132.247 145.031C132.586 144.724 132.858 144.35 133.048 143.934C133.238 143.518 133.341 143.068 133.352 142.611C133.363 142.154 133.281 141.699 133.111 141.274C132.941 140.85 132.686 140.464 132.363 140.141L115.131 122.909C118.352 122.09 120.272 120.058 121.402 117.288L138.454 134.339ZM97.4404 95.3992C97.6139 96.1263 97.4946 96.8925 97.1083 97.5325C96.7221 98.1726 96.0997 98.6351 95.3755 98.8205C94.6513 99.006 93.8833 98.8993 93.237 98.5237C92.5907 98.148 92.1179 97.5334 91.9206 96.8123C91.7471 96.0852 91.8664 95.319 92.2527 94.679C92.6389 94.0389 93.2613 93.5763 93.9855 93.3909C94.7097 93.2055 95.4777 93.3122 96.124 93.6878C96.7703 94.0635 97.2431 94.6781 97.4404 95.3992ZM92.5046 79.2742C92.6781 80.0013 92.5588 80.7675 92.1725 81.4076C91.7862 82.0476 91.1639 82.5102 90.4397 82.6956C89.7155 82.881 88.9475 82.7744 88.3011 82.3987C87.6548 82.023 87.1821 81.4084 86.9847 80.6874C86.8113 79.9602 86.9306 79.194 87.3168 78.554C87.7031 77.914 88.3254 77.4514 89.0496 77.266C89.7738 77.0806 90.5419 77.1872 91.1882 77.5629C91.8345 77.9385 92.3073 78.5531 92.5046 79.2742ZM105.764 71.0794C105.937 71.8065 105.818 72.5727 105.432 73.2127C105.045 73.8528 104.423 74.3154 103.699 74.5008C102.975 74.6862 102.207 74.5795 101.56 74.2039C100.914 73.8282 100.441 73.2136 100.244 72.4926C100.151 72.1301 100.131 71.753 100.184 71.3827C100.236 71.0123 100.362 70.656 100.553 70.3342C100.743 70.0123 100.995 69.7311 101.295 69.5067C101.594 69.2824 101.935 69.1191 102.297 69.0264C102.66 68.9334 103.037 68.9128 103.407 68.9657C103.778 69.0186 104.134 69.144 104.456 69.3346C104.778 69.5253 105.059 69.7775 105.283 70.0769C105.508 70.3762 105.671 70.7169 105.764 71.0794ZM98.6096 54.6198C98.783 55.3469 98.6637 56.1131 98.2775 56.7532C97.8912 57.3932 97.2689 57.8558 96.5447 58.0412C95.8205 58.2266 95.0524 58.12 94.4061 57.7443C93.7598 57.3686 93.287 56.754 93.0897 56.033C92.9163 55.3058 93.0355 54.5396 93.4218 53.8996C93.8081 53.2596 94.4304 52.797 95.1546 52.6116C95.8788 52.4262 96.6469 52.5328 97.2932 52.9085C97.9395 53.2841 98.4123 53.8987 98.6096 54.6198ZM76.9678 23.3149C77.1412 24.0421 77.0219 24.8082 76.6357 25.4483C76.2494 26.0883 75.6271 26.5509 74.9029 26.7363C74.1787 26.9217 73.4106 26.8151 72.7643 26.4394C72.118 26.0637 71.6452 25.4491 71.4479 24.7281C71.2745 24.0009 71.3937 23.2347 71.78 22.5947C72.1663 21.9547 72.7886 21.4921 73.5128 21.3067C74.237 21.1213 75.0051 21.2279 75.6514 21.6036C76.2977 21.9792 76.7704 22.5939 76.9678 23.3149Z" fill="#F7E8C2"/>
</svg>
