<svg width="118" height="118" viewBox="0 0 118 118" fill="none" xmlns="http://www.w3.org/2000/svg">
<path d="M110.504 40.8676L110.196 40.5717C109.862 40.245 109.531 39.9144 109.204 39.5798C108.686 39.053 108.164 38.5306 107.637 38.0126C108.198 37.0815 108.914 36.0527 109.817 34.7593C110.453 33.8485 111.175 32.8141 111.995 31.5954C112.125 31.4025 112.212 31.1838 112.249 30.9542C112.287 30.7246 112.274 30.4895 112.213 30.2652C112.151 30.0409 112.041 29.8327 111.891 29.6548C111.741 29.4768 111.555 29.3335 111.344 29.2345C110.131 28.7023 108.804 28.4866 107.485 28.6077C106.166 28.7288 104.9 29.1827 103.804 29.9268L103.831 29.8162C104.09 28.7395 104.384 27.5115 104.705 26.09C104.756 25.8629 104.757 25.6276 104.708 25.4001C104.659 25.1726 104.562 24.9583 104.423 24.7719C104.284 24.5855 104.106 24.4314 103.901 24.3201C103.697 24.2089 103.471 24.1431 103.239 24.1273C100.617 23.9568 97.5565 25.2262 95.5422 28.9377C94.789 28.6508 94.0036 28.4567 93.2034 28.3597C92.6632 26.5176 91.6366 24.8552 90.2316 23.5471C88.8265 22.2391 87.095 21.3339 85.2191 20.9266C84.8448 20.8649 84.4607 20.9365 84.1337 21.1288C83.8067 21.3212 83.5576 21.6222 83.4297 21.9794C82.4554 24.8561 81.7994 27.8309 81.4735 30.8506C80.6023 31.1631 79.7016 31.4903 78.7364 31.8443C77.6154 32.2564 76.4318 32.6925 75.1669 33.1433C66.8747 36.1062 52.9276 36.1799 33.713 33.3608C26.338 32.2804 20.2619 33.6982 16.1347 37.4595C15.632 37.9187 15.161 38.4115 14.7251 38.9345C12.6803 38.9548 10.7237 39.7701 9.26948 41.2078C5.38194 45.0308 3.8719 53.6246 4.37986 69.0733C4.3935 69.4919 4.56934 69.8887 4.87023 70.1799C5.17111 70.4712 5.57346 70.634 5.99222 70.6341H6.04569C6.4733 70.6201 6.87787 70.4369 7.17038 70.1246C7.4629 69.8124 7.61942 69.3968 7.6055 68.9692C7.14456 54.8894 8.42965 46.5611 11.5327 43.5097C11.7796 43.2655 12.0526 43.0491 12.3467 42.8644C10.9619 46.2989 10.3899 50.0071 10.6753 53.6992C10.7944 58.7118 11.245 63.711 12.024 68.664C12.6694 73.3877 13.2695 77.8486 12.8454 80.382C12.389 82.976 12.5584 85.6416 13.3396 88.157C13.9841 90.6954 14.4496 93.276 14.7325 95.8796C14.7767 96.2738 14.9646 96.638 15.2604 96.9024C15.5561 97.1669 15.9389 97.3131 16.3357 97.3131H22.5583C22.7915 97.3132 23.0219 97.2627 23.2337 97.1651C23.4455 97.0676 23.6336 96.9252 23.7851 96.748C23.9366 96.5707 24.0479 96.3627 24.1112 96.1383C24.1746 95.9139 24.1886 95.6785 24.1522 95.4482C24.1366 95.3477 22.6228 85.7371 22.5012 81.5795C22.9888 80.8659 24.0287 79.3209 25.3488 77.2181C25.4119 78.2699 25.3739 79.3254 25.2354 80.37C24.7741 82.9698 24.9413 85.6423 25.7231 88.1644C26.3659 90.7006 26.8304 93.2786 27.1133 95.8796C27.1573 96.2739 27.3452 96.6382 27.641 96.9027C27.9367 97.1671 28.3196 97.3133 28.7164 97.3131H34.9391C35.1721 97.3132 35.4024 97.2627 35.6141 97.1652C35.8258 97.0677 36.0138 96.9254 36.1652 96.7483C36.3166 96.5711 36.4278 96.3632 36.4912 96.1389C36.5545 95.9146 36.5685 95.6793 36.5321 95.4491C36.5164 95.3486 35.0119 85.738 34.8912 81.5804C35.3871 80.8558 36.4583 79.2693 37.8043 77.1084C44.2021 77.8118 51.283 77.8984 58.6045 77.986C59.3125 77.9943 60.0371 78.0054 60.7534 78.0146C60.779 78.8028 60.7364 79.5918 60.6262 80.3727C60.1694 82.9712 60.3375 85.641 61.1167 88.1617C61.7566 90.699 62.2186 93.2779 62.4995 95.8796C62.5435 96.2739 62.7313 96.6382 63.0271 96.9027C63.3229 97.1671 63.7058 97.3133 64.1026 97.3131H70.3253C70.5583 97.313 70.7885 97.2624 71.0002 97.1649C71.2118 97.0673 71.3998 96.9251 71.5513 96.748C71.7027 96.5708 71.814 96.363 71.8775 96.1388C71.941 95.9146 71.9552 95.6793 71.9192 95.4491C71.9063 95.3486 70.4027 85.7344 70.2819 81.5785C71.0886 80.391 71.8756 79.1902 72.6429 77.9768C72.8079 77.9611 72.9858 77.9593 73.149 77.9418C73.1739 78.7565 73.1295 79.5719 73.0162 80.3792C72.5546 82.9739 72.7206 85.6414 73.5002 88.1589C74.1418 90.6953 74.6042 93.2737 74.8839 95.875C74.9277 96.2697 75.1156 96.6344 75.4116 96.8993C75.7076 97.1641 76.0908 97.3105 76.488 97.3103H82.7107C82.9435 97.3104 83.1736 97.2599 83.3852 97.1625C83.5967 97.0651 83.7846 96.9231 83.936 96.7461C84.0874 96.5691 84.1986 96.3615 84.2621 96.1374C84.3255 95.9134 84.3397 95.6782 84.3036 95.4482C84.2889 95.3477 82.7927 85.7353 82.6719 81.5776C85.6327 77.2168 88.3556 72.6992 90.8287 68.0445L90.8766 67.9634C92.2997 65.0266 93.4364 61.9595 94.271 58.8046C94.5014 58.0247 94.7632 57.1452 94.8416 56.9608C95.734 55.3116 96.5775 53.7555 101.03 55.1696C107.483 57.2125 110.226 54.8718 112.561 50.4349C115.219 45.3747 112.268 42.5528 110.504 40.8676ZM107.937 31.8241C107.67 32.2085 107.418 32.5708 107.176 32.9156C106.515 33.8501 105.874 34.7989 105.254 35.7614C104.703 35.2633 104.144 34.7749 103.575 34.2965C104.679 32.9679 106.23 32.0886 107.937 31.8241ZM33.0631 94.0865H30.1453C29.846 91.8367 29.4169 89.6061 28.8602 87.4057C28.1821 85.3068 28.0304 83.0733 28.4187 80.9019C28.6482 79.0873 28.6665 77.2522 28.4731 75.4333C30.3855 75.9414 32.3244 76.3446 34.2809 76.641C32.9036 78.7954 31.9614 80.1441 31.9494 80.1616C31.7595 80.4316 31.6571 80.7534 31.6563 81.0835C31.896 85.4396 32.3656 89.78 33.0631 94.0865ZM68.4539 94.0865H65.5352C65.2367 91.8369 64.8092 89.6063 64.2547 87.4057C63.5792 85.3063 63.427 83.0736 63.8113 80.9019C63.9478 79.9626 64.0036 79.0132 63.9782 78.0644C65.1628 78.0846 66.3483 78.1059 67.5191 78.1372C67.9238 78.1483 68.3045 78.1372 68.7009 78.1372C67.8712 79.3983 67.3476 80.1552 67.3393 80.1653C67.1505 80.4357 67.0488 80.7574 67.048 81.0872C67.2875 85.442 67.7568 89.7812 68.4539 94.0865ZM109.703 48.9377C107.81 52.5377 106.43 53.5001 102.005 52.097C95.8409 50.1399 93.4892 52.6824 92.0059 55.424C91.7646 55.9429 91.5718 56.483 91.4297 57.0373C90.3852 55.6531 89.3657 54.2501 88.3719 52.829C88.2548 52.6461 88.1019 52.4887 87.9225 52.3663C87.7431 52.2439 87.5408 52.159 87.3278 52.1166C87.1148 52.0743 86.8954 52.0754 86.6828 52.1199C86.4703 52.1643 86.2689 52.2513 86.0907 52.3755C85.9125 52.4997 85.7613 52.6586 85.646 52.8427C85.5307 53.0267 85.4538 53.2322 85.4198 53.4467C85.3859 53.6612 85.3956 53.8804 85.4484 54.091C85.5012 54.3017 85.5959 54.4996 85.727 54.6727C86.7853 56.1883 87.8944 57.7149 89.0246 59.2065C89.1753 59.406 89.3703 59.5677 89.5944 59.6787C89.8184 59.7898 90.0652 59.8471 90.3152 59.8463C90.4126 59.8396 90.5091 59.8241 90.6037 59.8002C89.9522 62.0614 89.1042 64.2614 88.0695 66.375C88.0462 66.4127 88.024 66.4511 88.0031 66.4902L87.8547 66.7668C87.014 66.575 85.7897 66.2976 84.3009 65.9684C84.094 65.9228 83.8801 65.9184 83.6715 65.9554C83.4629 65.9924 83.2636 66.0701 83.0851 66.1841C82.9065 66.2982 82.7521 66.4463 82.6308 66.6199C82.5094 66.7936 82.4235 66.9895 82.3779 67.1964C82.3322 67.4033 82.3278 67.6171 82.3648 67.8257C82.4018 68.0344 82.4795 68.2336 82.5935 68.4122C82.7076 68.5908 82.8557 68.7451 83.0293 68.8665C83.203 68.9878 83.3989 69.0738 83.6058 69.1194C84.6199 69.3434 85.5132 69.5435 86.2424 69.7094C82.9135 75.5937 79.7662 80.1109 79.7293 80.1626C79.5402 80.4328 79.4386 80.7546 79.438 81.0844C79.6764 85.4387 80.1432 89.7775 80.8365 94.0829H77.9169C77.6205 91.8317 77.1929 89.5997 76.6364 87.3983C75.9606 85.3017 75.8102 83.0712 76.1985 80.9028C76.4099 79.2796 76.4442 77.6383 76.3009 76.0077C76.2869 75.7828 76.226 75.5633 76.1221 75.3634C76.0182 75.1634 75.8735 74.9875 75.6975 74.8468C75.5215 74.7061 75.318 74.6038 75.1001 74.5466C74.8822 74.4893 74.6547 74.4783 74.4322 74.5142C72.1756 74.8587 69.8916 74.9904 67.6103 74.9079C65.5275 74.8556 63.4443 74.8172 61.3609 74.7926C61.8958 73.3605 62.3422 71.8969 62.6977 70.41C62.7955 69.9934 62.7238 69.555 62.4983 69.1913C62.2729 68.8275 61.9122 68.5682 61.4955 68.4704C61.0789 68.3726 60.6405 68.4443 60.2768 68.6698C59.913 68.8952 59.6537 69.2559 59.5559 69.6725C59.1584 71.3868 58.6273 73.0672 57.9675 74.6986C57.9611 74.7143 57.9611 74.7309 57.9555 74.7456C49.4411 74.6433 41.2871 74.5115 34.3279 73.3739C34.7142 72.7055 35.2267 71.8795 35.8812 70.9355C36.0023 70.7614 36.0879 70.5652 36.1331 70.358C36.1783 70.1509 36.1823 69.9368 36.1448 69.7281C36.1073 69.5194 36.0291 69.3201 35.9146 69.1417C35.8001 68.9632 35.6516 68.809 35.4775 68.688C35.3034 68.5669 35.1072 68.4813 34.9 68.4361C34.6928 68.3909 34.4788 68.3869 34.2701 68.4244C34.0614 68.4619 33.8621 68.5401 33.6836 68.6546C33.5052 68.7691 33.351 68.9177 33.2299 69.0918C32.414 70.2609 31.6687 71.4778 30.9981 72.7359C29.5044 72.4024 28.032 71.9801 26.5887 71.4711H26.5703C25.4008 70.9868 24.2503 70.4576 23.1216 69.8846C22.9322 69.7874 22.7255 69.7287 22.5134 69.7118C22.3013 69.6948 22.0879 69.72 21.8855 69.7859C21.6832 69.8518 21.4959 69.9571 21.3344 70.0957C21.1729 70.2343 21.0404 70.4035 20.9446 70.5935C20.8488 70.7835 20.7915 70.9906 20.776 71.2028C20.7606 71.4151 20.7873 71.6283 20.8546 71.8302C20.9219 72.032 21.0285 72.2186 21.1682 72.3791C21.3079 72.5396 21.478 72.6709 21.6687 72.7654C22.4431 73.1563 23.1317 73.4817 23.7079 73.7445C21.3894 77.5454 19.5788 80.1413 19.5594 80.1708C19.3702 80.441 19.2685 80.7628 19.2681 81.0927C19.5093 85.4474 19.9811 89.7863 20.6814 94.0912H17.7636C17.4638 91.8383 17.0329 89.6047 16.473 87.402C15.7966 85.3092 15.6431 83.0825 16.0259 80.9166C16.5053 78.0533 15.9789 73.8542 15.3216 68.9913C15.7687 69.3084 16.2269 69.6228 16.7044 69.9344C17.063 70.1464 17.4897 70.2115 17.8953 70.1161C18.3008 70.0206 18.6537 69.772 18.88 69.4222C19.1063 69.0724 19.1886 68.6487 19.1096 68.2396C19.0305 67.8306 18.7963 67.468 18.456 67.2277C17.1415 66.3837 15.8894 65.4462 14.7095 64.4225C14.3407 61.5213 14.0264 58.4893 13.925 55.5144C14.3398 55.5365 14.786 55.5485 15.2727 55.5485C16.0379 55.5485 16.8989 55.5208 17.8319 55.4665C18.2192 55.4499 18.5884 55.2977 18.8748 55.0365C19.1613 54.7753 19.3469 54.4217 19.399 54.0375C19.4275 53.8031 19.4039 53.5653 19.3299 53.3411C19.2559 53.1168 19.1334 52.9117 18.9711 52.7402C18.8087 52.5687 18.6106 52.4351 18.3907 52.349C18.1709 52.2628 17.9347 52.2262 17.6991 52.2417C16.4233 52.3313 15.1432 52.3433 13.866 52.2777C13.8282 46.7778 15.3032 42.5906 18.3122 39.8444C21.7 36.7561 26.8635 35.6185 33.2465 36.5533C34.2668 36.7021 35.288 36.845 36.3099 36.9819C36.2915 37.4263 36.2832 37.89 36.2924 38.3813C36.3004 38.8038 36.4737 39.2062 36.7752 39.5022C37.0767 39.7981 37.4823 39.964 37.9048 39.9642H37.9361C38.1479 39.9603 38.3569 39.9146 38.5511 39.8298C38.7452 39.7451 38.9208 39.6229 39.0677 39.4702C39.2146 39.3176 39.33 39.1374 39.4073 38.9402C39.4846 38.7429 39.5222 38.5323 39.518 38.3205C39.5116 37.9914 39.518 37.6955 39.5291 37.394C46.2899 38.2789 53.1037 38.6956 59.9219 38.6413C59.8961 39.1705 59.8813 39.7291 59.8813 40.332C59.8813 41.0465 59.8989 41.7923 59.9293 42.5648C59.9459 42.9812 60.1229 43.375 60.4233 43.6638C60.7236 43.9526 61.124 44.1141 61.5407 44.1145H61.6052C62.0328 44.0975 62.4361 43.9114 62.7265 43.5971C63.017 43.2828 63.1707 42.8661 63.154 42.4385C63.1254 41.7102 63.1079 41.0068 63.1079 40.333C63.1079 39.6738 63.1254 39.0746 63.1586 38.5196C67.6028 38.3593 72.0025 37.5761 76.229 36.1928C76.4735 37.4713 76.8374 38.7241 77.3158 39.9347C77.3909 40.1339 77.5046 40.3163 77.6504 40.4714C77.7963 40.6264 77.9714 40.7511 78.1656 40.8382C78.3598 40.9253 78.5694 40.973 78.7822 40.9788C78.995 40.9845 79.2068 40.948 79.4055 40.8715C79.6041 40.795 79.7856 40.6799 79.9396 40.533C80.0936 40.386 80.2169 40.2099 80.3026 40.0151C80.3882 39.8202 80.4344 39.6103 80.4386 39.3974C80.4427 39.1846 80.4047 38.9731 80.3267 38.775C79.8447 37.5864 79.498 36.3472 79.2933 35.081L79.8565 34.8745C80.4096 34.6717 80.9388 34.4781 81.4569 34.2901C81.5182 35.0297 81.6576 35.7609 81.8727 36.4712C82.0042 36.8756 82.2902 37.2117 82.6683 37.4064C83.0464 37.6011 83.4861 37.6386 83.8917 37.5107C84.2973 37.3829 84.6361 37.1001 84.8342 36.7238C85.0324 36.3475 85.074 35.9082 84.9499 35.5014C84.0335 32.5966 85.1555 27.4664 86.0165 24.5182C87.9524 25.3414 91.1421 27.671 90.3364 33.9803C90.2914 34.4003 90.4129 34.8212 90.6747 35.1527C90.9365 35.4842 91.3178 35.6998 91.7367 35.7534C92.1557 35.8069 92.579 35.6941 92.9158 35.4392C93.2525 35.1842 93.4759 34.8074 93.5381 34.3896C93.6519 33.5057 93.7009 32.6146 93.6846 31.7236C93.907 31.7825 94.126 31.853 94.341 31.9347C94.2009 32.4085 94.0645 32.9008 93.9566 33.4254C93.8666 33.8437 93.9465 34.2806 94.1787 34.6401C94.4109 34.9995 94.7763 35.252 95.1947 35.3419C95.613 35.4319 96.05 35.352 96.4094 35.1198C96.7688 34.8876 97.0213 34.5222 97.1113 34.1039C97.8921 30.4717 99.4316 28.5486 101.014 27.7687C100.906 28.2241 100.802 28.6546 100.703 29.0594C99.8188 32.7229 99.285 34.9335 99.6888 37.7462C99.7442 38.1298 99.9358 38.4807 100.229 38.7346C100.522 38.9885 100.896 39.1285 101.284 39.129C101.361 39.1289 101.438 39.1234 101.514 39.1124C101.828 39.0677 102.122 38.9312 102.359 38.7202C102.596 38.5091 102.766 38.2328 102.846 37.9259C104.523 39.424 105.898 40.8123 106.914 41.8411C107.331 42.2643 107.682 42.6201 107.96 42.8875L108.28 43.1954C109.992 44.8418 111.233 46.0274 109.703 48.9377Z" fill="#654321"/>
<path d="M103.25 46.6893C101.577 46.1627 99.8358 45.8832 98.0819 45.8596C97.654 45.8596 97.2437 46.0296 96.9412 46.3321C96.6386 46.6347 96.4686 47.045 96.4686 47.4729C96.4686 47.9008 96.6386 48.3111 96.9412 48.6137C97.2437 48.9162 97.654 49.0862 98.0819 49.0862C99.5235 49.111 100.954 49.3451 102.328 49.7813C102.478 49.8262 102.633 49.8488 102.789 49.8486C103.177 49.8493 103.552 49.7101 103.846 49.4566C104.14 49.203 104.332 48.8521 104.388 48.4681C104.444 48.0842 104.36 47.6929 104.151 47.366C103.942 47.0391 103.622 46.7995 103.25 46.6893ZM43.4866 58.5253C43.4866 58.5133 43.1769 57.5176 42.7362 55.9163C42.6174 55.5099 42.3435 55.1666 41.9737 54.9603C41.6039 54.754 41.1678 54.7014 40.7595 54.8138C40.3513 54.9262 40.0036 55.1946 39.7915 55.5611C39.5794 55.9276 39.5199 56.3628 39.6258 56.7728C40.0868 58.4404 40.4039 59.4748 40.4039 59.4748C40.5219 59.8476 40.7733 60.1637 41.11 60.3626C41.002 60.4207 40.9012 60.4912 40.8095 60.5727C39.3942 61.8447 38.049 63.1926 36.78 64.6106C36.6342 64.7678 36.5212 64.9525 36.4476 65.1538C36.374 65.3552 36.3412 65.5693 36.3513 65.7834C36.3614 65.9976 36.414 66.2076 36.5062 66.4012C36.5984 66.5948 36.7282 66.7681 36.8882 66.9109C37.0481 67.0537 37.2349 67.1632 37.4376 67.233C37.6403 67.3029 37.855 67.3315 38.0689 67.3174C38.2829 67.3033 38.4919 67.2467 38.6837 67.1509C38.8755 67.0551 39.0463 66.922 39.1861 66.7594C40.3765 65.4291 41.6383 64.1642 42.9658 62.9705C43.1234 62.8289 43.2515 62.6577 43.3429 62.4665C43.4342 62.2753 43.487 62.068 43.4981 61.8564C43.5092 61.6448 43.4785 61.4331 43.4078 61.2334C43.337 61.0337 43.2275 60.8499 43.0856 60.6926C42.9824 60.5804 42.8635 60.4839 42.7325 60.4059C43.0543 60.2259 43.3047 59.941 43.4419 59.5988C43.5791 59.2566 43.5949 58.8777 43.4866 58.5253ZM62.221 55.1576H62.2984C62.7259 55.1371 63.1277 54.9477 63.4155 54.631C63.7033 54.3143 63.8536 53.8962 63.8333 53.4688C63.7411 51.4904 63.5983 49.5047 63.4858 47.9108C63.4556 47.4839 63.2571 47.0865 62.9338 46.806C62.6106 46.5255 62.1892 46.3848 61.7623 46.415C61.3354 46.4452 60.938 46.6438 60.6575 46.967C60.377 47.2902 60.2364 47.7116 60.2666 48.1385C60.3533 49.3535 60.451 50.6884 60.5284 52.0767C59.0322 52.3413 57.5637 52.6077 56.1707 52.9064C55.782 52.9909 55.4382 53.216 55.2053 53.5384C54.9723 53.8608 54.8666 54.2579 54.9085 54.6535C54.9503 55.049 55.1367 55.4152 55.4319 55.6818C55.7271 55.9484 56.1104 56.0966 56.5081 56.098C56.6228 56.0974 56.7371 56.0851 56.8492 56.0611C58.4302 55.7209 60.1265 55.4158 61.8661 55.1152C61.9824 55.1424 62.1015 55.1567 62.221 55.1576ZM82.5917 43.5992C82.3859 43.2274 82.0418 42.9517 81.6341 42.8321C81.2263 42.7125 80.7879 42.7586 80.4139 42.9604C80.0399 43.1622 79.7607 43.5034 79.6368 43.9099C79.5129 44.3163 79.5544 44.7553 79.7523 45.1313C80.1293 45.831 80.5405 46.5584 80.9765 47.3051C79.8776 47.6739 78.7742 48.0371 77.6725 48.3643C77.3005 48.4745 76.9806 48.7151 76.7715 49.042C76.5624 49.3688 76.4781 49.7601 76.5341 50.1441C76.5901 50.5281 76.7827 50.879 77.0764 51.1325C77.3701 51.3861 77.7454 51.5252 78.1335 51.5245C78.2896 51.5248 78.4449 51.5021 78.5944 51.4572C79.9775 51.0418 81.3511 50.5955 82.7143 50.1187C82.9657 50.4483 83.3348 50.668 83.7444 50.7318C84.154 50.7957 84.5724 50.6987 84.9122 50.4613C85.252 50.2238 85.4869 49.8642 85.5678 49.4577C85.6487 49.0511 85.5693 48.629 85.3462 48.2795C84.3749 46.7513 83.4562 45.1903 82.5917 43.5992ZM74.3611 50.965C74.262 50.5488 74.0018 50.1889 73.6377 49.9642C73.2736 49.7396 72.8352 49.6685 72.4188 49.7665C70.7456 50.1648 69.0004 50.5363 67.0829 50.9013C66.6894 50.9776 66.3384 51.1976 66.0981 51.5184C65.8578 51.8392 65.7454 52.238 65.7829 52.6371C65.8204 53.0361 66.0051 53.407 66.3009 53.6774C66.5968 53.9479 66.9826 54.0986 67.3835 54.1003C67.4856 54.1002 67.5874 54.0906 67.6877 54.0717C69.6531 53.6965 71.4453 53.3148 73.1655 52.9064C73.5813 52.8073 73.9409 52.5471 74.1651 52.1831C74.3892 51.8191 74.4598 51.381 74.3611 50.965ZM50.6422 54.4331C48.7893 55.0842 47.016 55.9431 45.3562 56.9931C45.1737 57.1052 45.0154 57.2524 44.8904 57.4263C44.7654 57.6002 44.6763 57.7972 44.6283 58.0059C44.5802 58.2146 44.5742 58.4307 44.6106 58.6417C44.6469 58.8528 44.7249 59.0544 44.84 59.235C44.9551 59.4156 45.105 59.5714 45.2809 59.6935C45.4569 59.8155 45.6554 59.9013 45.8648 59.9458C46.0743 59.9904 46.2905 59.9928 46.5009 59.9529C46.7113 59.913 46.9116 59.8317 47.0902 59.7136C48.547 58.794 50.1028 58.0416 51.7282 57.4706C51.9279 57.3992 52.1117 57.2891 52.2689 57.1467C52.4261 57.0043 52.5537 56.8323 52.6445 56.6405C52.7352 56.4488 52.7873 56.241 52.7977 56.0291C52.8082 55.8172 52.7768 55.6054 52.7054 55.4056C52.634 55.2059 52.5239 55.0222 52.3814 54.8649C52.239 54.7077 52.067 54.5801 51.8753 54.4894C51.6835 54.3986 51.4758 54.3465 51.2639 54.3361C51.052 54.3256 50.8401 54.357 50.6404 54.4284L50.6422 54.4331ZM39.2893 51.9633C39.4186 52.0032 39.5524 52.0262 39.6876 52.0316C39.808 52.0316 39.928 52.018 40.0453 51.991C40.2519 51.9442 40.4474 51.8571 40.6204 51.7348C40.7934 51.6124 40.9406 51.4572 41.0536 51.2779C41.1666 51.0986 41.2432 50.8989 41.279 50.69C41.3148 50.4811 41.309 50.2673 41.2621 50.0606C40.7818 47.9403 40.3928 45.9601 40.108 44.1698C40.0343 43.7532 39.8 43.3821 39.4554 43.1366C39.1108 42.8911 38.6836 42.7908 38.2657 42.8573C37.8479 42.9238 37.4729 43.1518 37.2215 43.4921C36.9702 43.8325 36.8626 44.2579 36.922 44.6768C37.1552 46.1426 37.4566 47.731 37.8152 49.407C36.8759 49.584 35.5834 49.8209 34.0568 50.0864C33.6893 50.1436 33.3519 50.3232 33.0993 50.5961C32.8466 50.869 32.6935 51.2192 32.6647 51.59C32.6521 51.8094 32.6843 52.0292 32.7595 52.2358C32.8347 52.4423 32.9512 52.6314 33.1019 52.7914C33.2527 52.9514 33.4345 53.0789 33.6362 53.1662C33.838 53.2535 34.0554 53.2988 34.2752 53.2991C34.368 53.2993 34.4605 53.2913 34.5518 53.2752C36.0056 53.0226 37.2594 52.794 38.2052 52.617C38.6329 52.5353 39.0174 52.3035 39.2893 51.9633ZM28.472 50.9963C26.5868 51.2821 24.8113 51.5255 23.1943 51.7209C22.8178 51.758 22.4654 51.9231 22.1959 52.1887C21.9265 52.4543 21.7563 52.8043 21.7138 53.1802C21.6933 53.404 21.7196 53.6295 21.7912 53.8425C21.8628 54.0555 21.978 54.2512 22.1294 54.4172C22.2809 54.5831 22.4653 54.7156 22.6709 54.8063C22.8765 54.897 23.0987 54.9438 23.3234 54.9438C23.3881 54.9439 23.4528 54.9399 23.517 54.9318C25.2132 54.7281 27.0763 54.4708 29.0556 54.1722C29.2879 54.1369 29.5097 54.0514 29.7055 53.9216C29.9014 53.7918 30.0665 53.6208 30.1894 53.4206C30.3123 53.2203 30.39 52.9957 30.4171 52.7623C30.4442 52.5289 30.42 52.2924 30.3462 52.0694C30.2091 51.6992 29.9463 51.389 29.6038 51.1929C29.2612 50.9968 28.8607 50.9272 28.472 50.9963ZM67.8785 62.7557C66.1813 62.4995 64.864 62.3455 63.8324 62.2856C63.8942 61.2595 63.9338 60.2031 63.9476 59.0922C63.9528 58.6645 63.7879 58.2522 63.4892 57.9461C63.1904 57.6399 62.7824 57.4649 62.3546 57.4596H62.3344C61.91 57.4595 61.5027 57.6267 61.2007 57.9249C60.8987 58.2231 60.7264 58.6282 60.7211 59.0526C60.7046 60.8471 60.6052 62.6399 60.4233 64.4253C60.4011 64.6358 60.4206 64.8488 60.4806 65.0518C60.5407 65.2549 60.6401 65.4441 60.7733 65.6088C60.9065 65.7734 61.0709 65.9102 61.2569 66.0113C61.443 66.1124 61.6472 66.1758 61.8578 66.198C61.914 66.2036 61.9711 66.2063 62.0265 66.2063C62.29 66.2054 62.5493 66.1396 62.7814 66.0149C63.0135 65.8901 63.2114 65.7102 63.3576 65.4909C64.7095 65.5747 66.0562 65.7267 67.3927 65.9464C67.4733 65.9581 67.5546 65.9639 67.6361 65.9639C68.0425 65.963 68.4337 65.8087 68.7313 65.5319C69.0289 65.2551 69.2111 64.8761 69.2414 64.4708C69.2717 64.0655 69.1478 63.6636 68.8946 63.3457C68.6414 63.0277 68.2776 62.817 67.8758 62.7557H67.8785ZM78.8627 64.8014C77.0807 64.4326 75.2157 64.0556 73.3987 63.7117C73.1906 63.6724 72.9768 63.6744 72.7695 63.7177C72.5621 63.761 72.3654 63.8447 72.1904 63.964C72.0154 64.0834 71.8657 64.236 71.7497 64.4132C71.6337 64.5904 71.5537 64.7887 71.5144 64.9968C71.475 65.2049 71.4771 65.4187 71.5204 65.6261C71.5637 65.8334 71.6474 66.0302 71.7667 66.2051C71.886 66.3801 72.0387 66.5299 72.2159 66.6458C72.3931 66.7618 72.5914 66.8418 72.7995 66.8811C74.5962 67.2213 76.4418 67.5937 78.2054 67.9606C78.6243 68.0478 79.0607 67.965 79.4186 67.7304C79.7765 67.4958 80.0265 67.1286 80.1137 66.7097C80.2008 66.2907 80.118 65.8543 79.8834 65.4964C79.6488 65.1386 79.2816 64.8885 78.8627 64.8014Z" fill="#654321"/>
</svg>
