<svg width="158" height="158" viewBox="0 0 158 158" fill="none" xmlns="http://www.w3.org/2000/svg">
<g clip-path="url(#clip0_44_177)">
<path d="M121.83 59.1627C94.9826 29.5113 88.884 6.44975 88.884 6.44975C88.884 6.44975 84.2344 8.52471 79.0003 13.2788L72.4113 88.8139L79.0003 153.367H79.0006C111.383 153.367 137.634 127.116 137.634 94.734C137.633 81.3582 130.163 68.3673 121.83 59.1627Z" fill="#4EF300"/>
<path d="M69.1166 26.2172C65.7583 32.9341 64.9673 40.5069 64.9994 46.3182C65.0303 51.9557 61.0589 56.8209 55.5311 57.9267C53.6295 58.307 51.6634 58.212 49.8074 57.65C47.9514 57.088 46.2628 56.0765 44.8916 54.7052L39.4654 49.279C39.4654 49.279 31.4213 60.3707 30.0428 62.4574C23.851 71.8303 20.2786 83.0854 20.3688 95.1803C20.6091 127.482 46.6978 153.367 79.0003 153.367V13.2788C75.5765 16.3885 71.9032 20.644 69.1166 26.2172Z" fill="#BEEF1A"/>
<path d="M125.264 56.0531C111.868 41.2574 103.907 28.2329 99.5869 19.9117C94.9082 10.8987 93.375 5.30972 93.3632 5.26525L91.9705 0L86.9965 2.21859C86.7133 2.34491 83.3084 3.89697 79 7.23396L75.7053 13.0388L79 19.87C81.5747 16.9818 84.2303 14.8228 86.3661 13.3282C89.8508 22.1914 98.6841 40.5026 118.395 62.2727C122.786 67.1225 133 79.9942 133 94.7343C133 124.51 108.776 148.734 79.0003 148.734L75.7053 154.706L79 158C113.885 158 142.266 129.619 142.266 94.7343C142.266 82.0856 136.069 67.9871 125.264 56.0531Z" fill="#B6FC28"/>
<path d="M40.9245 133.098C30.7634 123.015 25.1087 109.536 25.0015 95.146C24.9212 84.3734 28.0012 73.9528 33.9083 65.0114C34.6295 63.9199 37.5226 59.8836 40.034 56.4006L41.6151 57.9816C43.524 59.8948 45.8766 61.3059 48.4632 62.089C51.0498 62.8722 53.79 63.0031 56.4395 62.4701C64.1265 60.9326 69.675 54.1295 69.6321 46.2932C69.6052 41.4437 70.2131 34.3839 73.26 28.2894C74.9128 24.9839 76.9303 22.1921 79 19.8703V7.23396C74.4621 10.7492 68.9223 16.2451 64.9722 24.1453C61.1068 31.8766 60.3337 40.4844 60.3661 46.3436C60.3849 49.7534 57.969 52.7142 54.6218 53.3836C53.4682 53.6153 52.2751 53.5581 51.1489 53.2171C50.0228 52.8761 48.9984 52.2618 48.1671 51.429L38.902 42.164L35.7148 46.5588C35.384 47.015 27.5951 57.7571 26.177 59.9034C19.2526 70.3854 15.6419 82.5958 15.7355 95.2146C15.8609 112.068 22.4886 127.857 34.3975 139.675C46.3056 151.492 62.1458 158 79 158V148.734C64.6074 148.734 51.0853 143.181 40.9245 133.098Z" fill="#E9FD02"/>
<path d="M79.0003 63.6395C78.966 63.6395 78.9317 63.6407 78.8975 63.6407L71.1767 99.8797L78.8975 136.119C78.9317 136.119 78.966 136.12 79.0003 136.12C99.0152 136.12 115.241 119.895 115.241 99.8797C115.241 79.8648 99.0152 63.6395 79.0003 63.6395Z" fill="#6BCD01"/>
<path d="M42.7598 99.8797C42.7598 119.86 58.9295 136.063 78.8971 136.119V63.6407C58.9299 63.6963 42.7598 79.8991 42.7598 99.8797Z" fill="#54E200"/>
<path d="M98.6618 78.6074H88.3905L78.8971 92.5095L75.7056 105.287L78.8971 107.552L98.6618 78.6074ZM94.5897 98.0564C88.1474 98.0564 83.2849 102.372 83.2849 109.908C83.2849 117.505 88.1471 121.76 94.5897 121.76C101.032 121.76 105.895 117.505 105.895 109.908C105.895 102.372 101.032 98.0564 94.5897 98.0564ZM94.5897 115.196C93.2526 115.196 91.9156 113.98 91.9156 109.908C91.9156 105.836 93.2526 104.62 94.5897 104.62C95.9268 104.62 97.2639 105.836 97.2639 109.908C97.2639 113.98 95.9268 115.196 94.5897 115.196Z" fill="#D9E7EC"/>
<path d="M69.6098 121.152L78.8972 107.552V92.5095L59.3385 121.152H69.6098ZM74.7154 89.8514C74.7154 82.3151 69.8532 77.9996 63.4106 77.9996C56.9679 77.9996 52.1058 82.3148 52.1058 89.8514C52.1058 97.4486 56.9679 101.703 63.4106 101.703C69.8532 101.703 74.7154 97.4486 74.7154 89.8514ZM60.7364 89.8514C60.7364 85.7793 62.0735 84.5636 63.4106 84.5636C64.7477 84.5636 66.0848 85.7793 66.0848 89.8514C66.0848 93.9235 64.7477 95.1392 63.4106 95.1392C62.0735 95.1392 60.7364 93.9235 60.7364 89.8514Z" fill="#FAFCFD"/>
</g>
<defs>
<clipPath id="clip0_44_177">
<rect width="158" height="158" fill="white"/>
</clipPath>
</defs>
</svg>
