<svg width="47" height="47" viewBox="0 0 47 47" fill="none" xmlns="http://www.w3.org/2000/svg">
<path d="M23.5078 11.4329C21.9241 11.4326 20.3558 11.7444 18.8926 12.3503C17.4294 12.9563 16.0998 13.8445 14.98 14.9644C13.8601 16.0843 12.9718 17.4138 12.3659 18.877C11.7599 20.3403 11.4482 21.9085 11.4484 23.4923C11.4482 25.076 11.7599 26.6443 12.3659 28.1075C12.9718 29.5708 13.8601 30.9003 14.98 32.0201C16.0998 33.14 17.4294 34.0283 18.8926 34.6343C20.3558 35.2402 21.9241 35.552 23.5078 35.5517C25.0916 35.552 26.6599 35.2402 28.1231 34.6343C29.5863 34.0283 30.9158 33.14 32.0357 32.0201C33.1556 30.9003 34.0439 29.5708 34.6498 28.1075C35.2558 26.6443 35.5675 25.076 35.5673 23.4923C35.5675 21.9085 35.2558 20.3403 34.6498 18.877C34.0439 17.4138 33.1556 16.0843 32.0357 14.9644C30.9158 13.8445 29.5863 12.9563 28.1231 12.3503C26.6599 11.7444 25.0916 11.4326 23.5078 11.4329ZM23.5078 31.3197C21.9603 31.3193 20.4476 30.8601 19.161 30.0001C17.8744 29.1401 16.8717 27.9179 16.2796 26.488C15.6876 25.0582 15.5327 23.4849 15.8348 21.9671C16.1368 20.4493 16.882 19.0551 17.9763 17.9608C19.0706 16.8665 20.4648 16.1212 21.9826 15.8192C23.5005 15.5172 25.0737 15.672 26.5036 16.264C27.9334 16.8561 29.1556 17.8588 30.0157 19.1454C30.8757 20.432 31.3349 21.9447 31.3353 23.4923C31.3358 24.5203 31.1337 25.5384 30.7405 26.4883C30.3473 27.4382 29.7708 28.3013 29.0438 29.0283C28.3169 29.7552 27.4538 30.3318 26.5039 30.725C25.554 31.1181 24.5359 31.3203 23.5078 31.3197Z" fill="#8B0000"/>
<path d="M33.1899 0.148853C28.8659 -0.0528554 18.1557 -0.0430638 13.8278 0.148853C10.0247 0.327061 6.6701 1.24552 3.96564 3.94998C-0.554191 8.46981 0.0235178 14.5602 0.0235178 23.4922C0.0235178 32.6337 -0.485649 38.5831 3.96564 43.0344C8.5031 47.5699 14.6816 46.9765 23.5079 46.9765C32.5632 46.9765 35.6887 46.9824 38.8906 45.7428C43.2439 44.0527 46.53 40.1615 46.8512 33.1722C47.0549 28.8463 47.0431 18.1381 46.8512 13.8102C46.4634 5.55973 42.0356 0.556186 33.1899 0.148853ZM40.0342 40.044C37.0713 43.007 32.9607 42.7426 23.4511 42.7426C13.6594 42.7426 9.73293 42.8875 6.86789 40.0146C3.5681 36.7305 4.16539 31.4567 4.16539 23.4609C4.16539 12.6411 3.05502 4.84885 13.914 4.29269C16.4089 4.20456 17.1433 4.17519 23.4236 4.17519L23.5118 4.23394C33.9477 4.23394 42.1355 3.14119 42.6271 13.9982C42.7387 16.4755 42.7641 17.2196 42.7641 23.4902C42.7622 33.1683 42.9463 37.1183 40.0342 40.044Z" fill="#8B0000"/>
<path d="M36.0451 13.775C37.6015 13.775 38.8631 12.5133 38.8631 10.957C38.8631 9.4006 37.6015 8.13892 36.0451 8.13892C34.4887 8.13892 33.2271 9.4006 33.2271 10.957C33.2271 12.5133 34.4887 13.775 36.0451 13.775Z" fill="#8B0000"/>
</svg>
