<svg width="48" height="47" viewBox="0 0 48 47" fill="none" xmlns="http://www.w3.org/2000/svg">
<path d="M47.3867 47L47.3984 46.998V29.7608C47.3984 21.3282 45.5831 14.8324 35.7248 14.8324C30.9856 14.8324 27.8053 17.4331 26.5069 19.8986H26.3699V15.6197H17.0227V46.998H26.7556V31.4606C26.7556 27.3697 27.5311 23.4138 32.5974 23.4138C37.5891 23.4138 37.6636 28.0825 37.6636 31.723V47H47.3867ZM1.17394 15.6216H10.9186V47H1.17394V15.6216ZM6.04235 0C2.92665 0 0.398438 2.52821 0.398438 5.64392C0.398438 8.75963 2.92665 11.3407 6.04235 11.3407C9.15806 11.3407 11.6863 8.75963 11.6863 5.64392C11.6852 4.14738 11.0903 2.71243 10.0321 1.65421C8.97385 0.595996 7.5389 0.00103746 6.04235 0Z" fill="#8B0000"/>
</svg>
