<svg width="160" height="160" viewBox="0 0 160 160" fill="none" xmlns="http://www.w3.org/2000/svg">
<path d="M146.396 39.2775C139.1 33.4628 128.802 28.7022 115.788 25.1284C90.76 18.2553 62.5359 17.5134 51.5628 17.5134C23.1309 17.5134 0 40.6447 0 69.0766V90.9234C0 119.356 23.1309 142.487 51.5628 142.487C64.6731 142.487 74.5191 138.38 84.9431 134.032C95.7231 129.535 106.87 124.886 122.547 124.886C143.198 124.886 160 108.084 160 87.4322V65.5853C160 55.3231 155.423 46.4719 146.396 39.2775ZM143.764 92.7006C144.947 93.9578 146.925 94.0169 148.182 92.8341C150.286 90.8515 152.155 88.6324 153.75 86.2209V87.4322C153.75 104.638 139.752 118.636 122.547 118.636C105.618 118.636 93.8847 123.53 82.5372 128.263C72.7069 132.363 63.4219 136.237 51.5628 136.237C27.5566 136.237 7.85375 117.47 6.34625 93.8372C15.1213 109.798 32.0991 120.639 51.5628 120.639C64.6731 120.639 74.5191 116.532 84.9431 112.184C95.7231 107.688 106.87 103.038 122.547 103.038C123.711 103.038 124.888 102.983 126.044 102.875C127.763 102.714 129.025 101.191 128.864 99.4722C128.703 97.7541 127.178 96.4919 125.461 96.6525C124.498 96.7425 123.517 96.7884 122.547 96.7884C105.618 96.7884 93.8847 101.683 82.5372 106.416C72.7069 110.516 63.4219 114.389 51.5628 114.389C26.5772 114.389 6.25 94.0622 6.25 69.0769C6.25 44.0913 26.5772 23.7638 51.5628 23.7638C62.2825 23.7638 89.8381 24.4841 114.133 31.1556C140.421 38.3747 153.75 49.9584 153.75 65.5853C153.75 74.115 150.159 82.3881 143.897 88.2831C142.641 89.4663 142.581 91.4441 143.764 92.7006Z" fill="#654321"/>
<path d="M141.195 94.6953C140.46 93.1338 138.597 92.4634 137.036 93.1984C137.014 93.2088 136.984 93.2234 136.962 93.2344C135.419 94.0063 134.793 95.8834 135.565 97.4269C135.934 98.165 136.58 98.7272 137.362 98.9908C138.144 99.2543 138.998 99.1979 139.739 98.8338C141.271 98.0859 141.923 96.2431 141.195 94.6953ZM74.1212 30.8944L73.9602 30.8813C72.2371 30.7469 70.7337 32.0275 70.5965 33.7481C70.4593 35.4684 71.7427 36.9744 73.463 37.1119L73.6227 37.1244C73.7074 37.1313 73.7915 37.1347 73.8752 37.1347C75.488 37.1347 76.8558 35.8941 76.9871 34.2588C77.1246 32.5381 75.8415 31.0322 74.1212 30.8944Z" fill="#654321"/>
<path d="M145.549 57.1666C142.449 51.0403 135.552 45.7459 125.049 41.4309C116.551 37.9394 107.257 35.7338 100.956 34.4978C97.1805 33.7575 93.2236 33.0963 89.1954 32.5331C87.487 32.2919 85.907 33.4856 85.6676 35.1953C85.4286 36.9047 86.6204 38.4838 88.3298 38.7228C92.2454 39.2703 96.0889 39.9125 99.7536 40.6313C121.219 44.8409 135.878 51.8963 139.972 59.9875C140.832 61.6878 141.25 63.5187 141.25 65.585C141.25 75.8978 132.86 84.2881 122.547 84.2881C112.119 84.2881 101.993 85.9922 91.5901 89.4981C87.1095 91.0084 82.7589 92.8138 78.5517 94.56C75.7689 95.7147 72.8914 96.9091 70.0351 97.9912C62.8273 100.723 57.3026 101.889 51.563 101.889C33.4698 101.889 18.7498 87.1691 18.7498 69.0763C18.7498 50.9831 33.4698 36.2631 51.563 36.2631C55.7153 36.2636 59.8671 36.3542 64.0154 36.5347C65.7383 36.6128 67.1992 35.2747 67.2751 33.5503C67.3514 31.8263 66.0151 30.3666 64.2911 30.2906C60.0508 30.1061 55.807 30.0136 51.5626 30.0131C30.0233 30.0131 12.4995 47.5366 12.4995 69.0763C12.4995 90.6153 30.0229 108.139 51.5626 108.139C58.1048 108.139 64.2917 106.852 72.2498 103.836C75.197 102.719 78.1201 101.506 80.9473 100.332C85.0576 98.6266 89.3079 96.8625 93.5861 95.4206C103.335 92.135 112.809 90.5378 122.547 90.5378C136.306 90.5384 147.5 79.3444 147.5 65.5853C147.5 62.5159 146.862 59.7622 145.549 57.1666Z" fill="#654321"/>
<path d="M54.5555 42.4438C45.8192 42.4438 38.7114 48.8891 38.7114 56.8116C38.7114 64.7341 45.8192 71.1794 54.5555 71.1794C63.2921 71.1794 70.3996 64.7341 70.3996 56.8116C70.3996 48.8891 63.2921 42.4438 54.5555 42.4438ZM54.5555 64.9291C49.2652 64.9291 44.9614 61.2875 44.9614 56.8113C44.9614 52.3353 49.2652 48.6934 54.5555 48.6934C59.8458 48.6934 64.1496 52.335 64.1496 56.8113C64.1496 61.2875 59.8458 64.9291 54.5555 64.9291Z" fill="#654321"/>
</svg>
