<svg width="160" height="160" viewBox="0 0 160 160" fill="none" xmlns="http://www.w3.org/2000/svg">
<path d="M13.6041 39.2775C20.9 33.4628 31.1978 28.7022 44.2116 25.1284C69.24 18.2553 97.4641 17.5134 108.437 17.5134C136.869 17.5134 160 40.6447 160 69.0766V90.9234C160 119.356 136.869 142.487 108.437 142.487C95.3269 142.487 85.4809 138.38 75.0569 134.032C64.2769 129.535 53.1303 124.886 37.4534 124.886C16.8016 124.886 0 108.084 0 87.4322V65.5853C0 55.3231 4.57718 46.4719 13.6041 39.2775ZM16.2356 92.7006C15.0525 93.9578 13.0747 94.0169 11.8181 92.8341C9.71359 90.8515 7.84515 88.6324 6.25 86.2209V87.4322C6.25 104.638 20.2478 118.636 37.4534 118.636C54.3816 118.636 66.1153 123.53 77.4628 128.263C87.2931 132.363 96.5781 136.237 108.437 136.237C132.443 136.237 152.146 117.47 153.654 93.8372C144.879 109.798 127.901 120.639 108.437 120.639C95.3269 120.639 85.4809 116.532 75.0569 112.184C64.2769 107.688 53.1303 103.038 37.4534 103.038C36.2888 103.038 35.1122 102.983 33.9559 102.875C32.2375 102.714 30.975 101.191 31.1359 99.4722C31.2969 97.7541 32.8222 96.4919 34.5387 96.6525C35.5022 96.7425 36.4825 96.7884 37.4534 96.7884C54.3816 96.7884 66.1153 101.683 77.4628 106.416C87.2931 110.516 96.5781 114.389 108.437 114.389C133.423 114.389 153.75 94.0622 153.75 69.0769C153.75 44.0913 133.423 23.7638 108.437 23.7638C97.7175 23.7638 70.1619 24.4841 45.8666 31.1556C19.5791 38.3747 6.25 49.9584 6.25 65.5853C6.25 74.115 9.84125 82.3881 16.1025 88.2831C17.3591 89.4663 17.4187 91.4441 16.2356 92.7006Z" fill="#654321"/>
<path d="M18.8054 94.6953C19.5404 93.1338 21.4026 92.4634 22.9635 93.1984C22.986 93.2088 23.0157 93.2234 23.0379 93.2344C24.5813 94.0063 25.207 95.8834 24.4354 97.4269C24.0664 98.165 23.4204 98.7272 22.6384 98.9908C21.8564 99.2543 21.0019 99.1979 20.2613 98.8338C18.7291 98.0859 18.077 96.2431 18.8054 94.6953ZM85.8788 30.8944L86.0398 30.8813C87.7629 30.7469 89.2663 32.0275 89.4035 33.7481C89.5407 35.4684 88.2573 36.9744 86.537 37.1119L86.3773 37.1244C86.2926 37.1313 86.2085 37.1347 86.1248 37.1347C84.512 37.1347 83.1442 35.8941 83.0129 34.2588C82.8754 32.5381 84.1585 31.0322 85.8788 30.8944Z" fill="#654321"/>
<path d="M14.4511 57.1666C17.5508 51.0403 24.4477 45.7459 34.9508 41.4309C43.4492 37.9394 52.7433 35.7338 59.0436 34.4978C62.8195 33.7575 66.7764 33.0963 70.8046 32.5331C72.513 32.2919 74.093 33.4856 74.3324 35.1953C74.5714 36.9047 73.3796 38.4838 71.6702 38.7228C67.7546 39.2703 63.9111 39.9125 60.2464 40.6313C38.7808 44.8409 24.1217 51.8963 20.028 59.9875C19.168 61.6878 18.7499 63.5187 18.7499 65.585C18.7499 75.8978 27.1402 84.2881 37.4533 84.2881C47.8808 84.2881 58.0067 85.9922 68.4099 89.4981C72.8905 91.0084 77.2411 92.8138 81.4483 94.56C84.2311 95.7147 87.1086 96.9091 89.9649 97.9912C97.1727 100.723 102.697 101.889 108.437 101.889C126.53 101.889 141.25 87.1691 141.25 69.0763C141.25 50.9831 126.53 36.2631 108.437 36.2631C104.285 36.2636 100.133 36.3542 95.9846 36.5347C94.2617 36.6128 92.8008 35.2747 92.7249 33.5503C92.6486 31.8263 93.9849 30.3666 95.7089 30.2906C99.9492 30.1061 104.193 30.0136 108.437 30.0131C129.977 30.0131 147.5 47.5366 147.5 69.0763C147.5 90.6153 129.977 108.139 108.437 108.139C101.895 108.139 95.7083 106.852 87.7502 103.836C84.803 102.719 81.8799 101.506 79.0527 100.332C74.9424 98.6266 70.6921 96.8625 66.4139 95.4206C56.6646 92.135 47.1914 90.5378 37.4533 90.5378C23.6939 90.5384 12.4999 79.3444 12.4999 65.5853C12.4999 62.5159 13.1383 59.7622 14.4511 57.1666Z" fill="#654321"/>
<path d="M105.445 42.4438C114.181 42.4438 121.289 48.8891 121.289 56.8116C121.289 64.7341 114.181 71.1794 105.445 71.1794C96.7079 71.1794 89.6004 64.7341 89.6004 56.8116C89.6004 48.8891 96.7079 42.4438 105.445 42.4438ZM105.445 64.9291C110.735 64.9291 115.039 61.2875 115.039 56.8113C115.039 52.3353 110.735 48.6934 105.445 48.6934C100.154 48.6934 95.8504 52.335 95.8504 56.8113C95.8504 61.2875 100.154 64.9291 105.445 64.9291Z" fill="#654321"/>
</svg>
