<svg width="86" height="66" viewBox="0 0 86 66" fill="none" xmlns="http://www.w3.org/2000/svg">
<g filter="url(#filter0_i_331_629)">
<path d="M31 45.16L31.32 48.168C30.1253 48.3813 29.08 48.488 28.184 48.488C26.1787 48.488 24.2587 47.144 22.424 44.456C20.5893 41.8107 19.1387 38.696 18.072 35.112C17.048 31.528 16.408 28.072 16.152 24.744C14.0187 30.2907 11.992 34.3227 10.072 36.84C8.19467 39.3147 6.25333 40.552 4.248 40.552C3.224 40.552 2.41333 40.1467 1.816 39.336C1.21867 38.4827 0.92 37.3733 0.92 36.008C0.92 32.8507 2.37067 28.84 5.272 23.976C8.216 19.112 11.6507 15.1227 15.576 12.008C15.6613 11.752 16.024 10.1947 16.664 7.336C17.3467 4.47733 17.752 2.89866 17.88 2.6L21.592 2.28C21.592 3.00533 21.4 4.52 21.016 6.824C26.776 2.42933 31.512 0.231998 35.224 0.231998C36.9733 0.231998 38.36 0.722665 39.384 1.704C40.408 2.64267 40.92 3.92267 40.92 5.544C40.92 9.59733 38.872 13.6933 34.776 17.832C30.68 21.928 26.3067 24.3387 21.656 25.064C21.9973 31.2507 23.064 36.0933 24.856 39.592C26.6907 43.0907 28.7387 44.9467 31 45.16ZM12.376 23.784C13.528 20.712 14.3173 18.2587 14.744 16.424C12.3973 18.6 10.2213 21.5013 8.216 25.128C6.25333 28.7547 5.272 31.4427 5.272 33.192C5.272 34.088 5.63467 34.536 6.36 34.536C7.64 34.536 9.64533 30.952 12.376 23.784ZM16.728 22.888C21.2507 22.888 25.304 21.3093 28.888 18.152C32.472 14.9947 34.264 11.8587 34.264 8.744C34.264 7.592 33.9653 6.696 33.368 6.056C32.8133 5.416 31.9173 5.096 30.68 5.096C29.4427 5.096 27.6507 5.8 25.304 7.208C22.9573 8.57333 21.272 9.704 20.248 10.6C18.9253 15.848 17.752 19.944 16.728 22.888ZM53.0925 33.448L54.5645 34.6C53.2418 36.4347 51.4285 37.9707 49.1245 39.208C46.8205 40.4027 44.5805 41 42.4045 41C40.2285 41 38.4792 40.36 37.1565 39.08C35.8338 37.8 35.1725 36.1147 35.1725 34.024C35.1725 30.0987 37.2418 26.2373 41.3805 22.44C45.5618 18.6427 49.7858 16.744 54.0525 16.744C56.8685 16.744 58.2765 17.8533 58.2765 20.072C58.2765 22.376 56.7832 24.7013 53.7965 27.048C50.8525 29.3947 46.6925 31.528 41.3165 33.448C41.7005 34.4293 42.2978 35.1973 43.1085 35.752C43.9192 36.3067 44.7512 36.584 45.6045 36.584C47.4392 36.584 49.9352 35.5387 53.0925 33.448ZM40.9965 31.528C44.4525 30.3333 47.4178 28.84 49.8925 27.048C52.3672 25.256 53.6045 23.6133 53.6045 22.12C53.6045 21.5653 53.3912 21.0747 52.9645 20.648C52.5378 20.2213 52.0472 20.008 51.4925 20.008C49.4872 20.008 47.3112 21.2667 44.9645 23.784C42.6605 26.2587 41.3378 28.84 40.9965 31.528ZM85.8515 38.696L85.9155 40.232C85.4888 40.488 83.5475 41.256 80.0915 42.536C78.7262 50.6853 76.7208 56.5733 74.0755 60.2C71.4302 63.8267 68.1875 65.64 64.3475 65.64C62.5555 65.64 61.1262 65.064 60.0595 63.912C58.9928 62.76 58.4595 61.2667 58.4595 59.432C58.4595 55.7627 60.1448 52.328 63.5155 49.128C66.8862 45.9707 71.3875 43.4747 77.0195 41.64C77.6595 38.7813 78.8115 34.7493 80.4755 29.544C77.6168 33.896 75.0142 36.84 72.6675 38.376C70.3635 39.912 68.2728 40.68 66.3955 40.68C64.5182 40.68 63.0888 40.168 62.1075 39.144C61.1688 38.12 60.6995 36.7547 60.6995 35.048C60.6995 32.232 61.8728 29.3733 64.2195 26.472C66.5662 23.528 69.5102 21.1387 73.0515 19.304C76.6355 17.4267 80.0915 16.488 83.4195 16.488L83.9315 18.728C79.1955 19.24 75.1208 20.904 71.7075 23.72C68.3368 26.536 66.6515 29.2453 66.6515 31.848C66.6515 32.9573 66.9928 33.8747 67.6755 34.6C68.3582 35.3253 69.1902 35.688 70.1715 35.688C71.6222 35.688 73.8195 34.152 76.7635 31.08C79.7075 28.008 81.7768 25.384 82.9715 23.208L85.3395 24.552C82.9928 30.824 81.3715 36.1147 80.4755 40.424L85.8515 38.696ZM76.6355 43.56C72.9235 45.2667 69.8515 47.3147 67.4195 49.704C64.9875 52.0933 63.7715 54.2693 63.7715 56.232C63.7715 57.256 64.0702 58.088 64.6675 58.728C65.2648 59.368 66.0115 59.688 66.9075 59.688C68.6995 59.688 70.4702 58.4293 72.2195 55.912C73.9688 53.3947 75.4408 49.2773 76.6355 43.56Z" fill="white"/>
</g>
<defs>
<filter id="filter0_i_331_629" x="0.919922" y="0.232056" width="85.9956" height="66.408" filterUnits="userSpaceOnUse" color-interpolation-filters="sRGB">
<feFlood flood-opacity="0" result="BackgroundImageFix"/>
<feBlend mode="normal" in="SourceGraphic" in2="BackgroundImageFix" result="shape"/>
<feColorMatrix in="SourceAlpha" type="matrix" values="0 0 0 0 0 0 0 0 0 0 0 0 0 0 0 0 0 0 127 0" result="hardAlpha"/>
<feOffset dx="1" dy="1"/>
<feGaussianBlur stdDeviation="0.5"/>
<feComposite in2="hardAlpha" operator="arithmetic" k2="-1" k3="1"/>
<feColorMatrix type="matrix" values="0 0 0 0 0.674167 0 0 0 0 0.538569 0 0 0 0 0.18989 0 0 0 1 0"/>
<feBlend mode="normal" in2="shape" result="effect1_innerShadow_331_629"/>
</filter>
</defs>
</svg>
