<svg width="85" height="65" viewBox="0 0 85 65" fill="none" xmlns="http://www.w3.org/2000/svg">
<g filter="url(#filter0_i_355_360)">
<path d="M11.2 34.048L24.512 34.432C26.3893 34.432 28.2027 33.8133 29.952 32.576L31.68 34.88C30.8267 35.8613 30.144 36.608 29.632 37.12C29.12 37.5893 28.352 38.0587 27.328 38.528C26.3467 38.9973 25.2373 39.232 24 39.232L12.032 38.72C6.69867 38.72 4.096 38.784 4.224 38.912C2.64533 38.8693 1.856 38.1653 1.856 36.8C1.984 35.9467 2.56 34.5387 3.584 32.576C4.608 30.5707 5.99467 26.9653 7.744 21.76C5.09867 21.76 2.73067 20.9707 0.64 19.392L1.984 17.024C3.81867 18.2187 6.05867 18.816 8.704 18.816C11.1787 12.7573 14.3147 8.21333 18.112 5.184C21.9093 2.15467 25.8773 0.639999 30.016 0.639999C31.9787 0.639999 33.5573 1.152 34.752 2.176C35.9467 3.15733 36.544 4.48 36.544 6.144C36.544 9.728 34.176 13.0987 29.44 16.256C24.7467 19.3707 19.392 21.12 13.376 21.504C11.4133 27.7333 9.216 31.9787 6.784 34.24C7.85067 34.112 9.32267 34.048 11.2 34.048ZM26.496 4.096C23.8507 4.096 21.3973 5.44 19.136 8.128C16.8747 10.816 15.2533 14.2933 14.272 18.56C18.5387 18.2613 22.272 16.9813 25.472 14.72C28.672 12.4587 30.272 10.0907 30.272 7.616C30.272 6.63466 29.9093 5.80266 29.184 5.12C28.4587 4.43733 27.5627 4.096 26.496 4.096ZM54.7875 20.992C55.8968 22.8267 56.4515 24.8533 56.4515 27.072C56.4515 30.528 55.2568 33.6213 52.8675 36.352C50.4782 39.04 47.6622 40.384 44.4195 40.384C41.9448 40.384 40.0035 39.68 38.5955 38.272C37.2302 36.8213 36.5475 34.8373 36.5475 32.32C36.5475 28.2667 38.1262 24.64 41.2835 21.44C44.4408 18.1973 47.9822 16.576 51.9075 16.576C52.6328 16.576 53.1448 16.5973 53.4435 16.64L53.6355 18.752C50.2222 18.752 47.3848 19.7333 45.1235 21.696C42.8622 23.6587 41.7315 26.176 41.7315 29.248C41.7315 31.0827 42.1795 32.576 43.0755 33.728C43.9715 34.8373 45.2728 35.392 46.9795 35.392C48.7288 35.392 50.1155 34.624 51.1395 33.088C52.1635 31.552 52.6755 29.76 52.6755 27.712C52.6755 25.6213 52.2702 23.7227 51.4595 22.016L54.7875 20.992ZM84.039 37.696L84.103 39.232C83.6763 39.488 81.735 40.256 78.279 41.536C76.9137 49.6853 74.9083 55.5733 72.263 59.2C69.6177 62.8267 66.375 64.64 62.535 64.64C60.743 64.64 59.3137 64.064 58.247 62.912C57.1803 61.76 56.647 60.2667 56.647 58.432C56.647 54.7627 58.3323 51.328 61.703 48.128C65.0737 44.9707 69.575 42.4747 75.207 40.64C75.847 37.7813 76.999 33.7493 78.663 28.544C75.8043 32.896 73.2017 35.84 70.855 37.376C68.551 38.912 66.4603 39.68 64.583 39.68C62.7057 39.68 61.2763 39.168 60.295 38.144C59.3563 37.12 58.887 35.7547 58.887 34.048C58.887 31.232 60.0603 28.3733 62.407 25.472C64.7537 22.528 67.6977 20.1387 71.239 18.304C74.823 16.4267 78.279 15.488 81.607 15.488L82.119 17.728C77.383 18.24 73.3083 19.904 69.895 22.72C66.5243 25.536 64.839 28.2453 64.839 30.848C64.839 31.9573 65.1803 32.8747 65.863 33.6C66.5457 34.3253 67.3777 34.688 68.359 34.688C69.8097 34.688 72.007 33.152 74.951 30.08C77.895 27.008 79.9643 24.384 81.159 22.208L83.527 23.552C81.1803 29.824 79.559 35.1147 78.663 39.424L84.039 37.696ZM74.823 42.56C71.111 44.2667 68.039 46.3147 65.607 48.704C63.175 51.0933 61.959 53.2693 61.959 55.232C61.959 56.256 62.2577 57.088 62.855 57.728C63.4523 58.368 64.199 58.688 65.095 58.688C66.887 58.688 68.6577 57.4293 70.407 54.912C72.1563 52.3947 73.6283 48.2773 74.823 42.56Z" fill="white"/>
</g>
<defs>
<filter id="filter0_i_355_360" x="0.640137" y="0.640015" width="84.4629" height="65" filterUnits="userSpaceOnUse" color-interpolation-filters="sRGB">
<feFlood flood-opacity="0" result="BackgroundImageFix"/>
<feBlend mode="normal" in="SourceGraphic" in2="BackgroundImageFix" result="shape"/>
<feColorMatrix in="SourceAlpha" type="matrix" values="0 0 0 0 0 0 0 0 0 0 0 0 0 0 0 0 0 0 127 0" result="hardAlpha"/>
<feOffset dx="1" dy="1"/>
<feGaussianBlur stdDeviation="0.5"/>
<feComposite in2="hardAlpha" operator="arithmetic" k2="-1" k3="1"/>
<feColorMatrix type="matrix" values="0 0 0 0 0.674167 0 0 0 0 0.538569 0 0 0 0 0.18989 0 0 0 1 0"/>
<feBlend mode="normal" in2="shape" result="effect1_innerShadow_355_360"/>
</filter>
</defs>
</svg>
