<svg width="30" height="29" viewBox="0 0 30 29" fill="none" xmlns="http://www.w3.org/2000/svg">
<path d="M15.9999 1.12192L15.9999 1.12194L19.3835 7.97792C19.5353 8.28559 19.7596 8.55172 20.0372 8.75333C20.3148 8.95495 20.6372 9.08599 20.9768 9.13517L28.5428 10.2346C28.5428 10.2346 28.5428 10.2346 28.5429 10.2346C29.4583 10.3678 29.8231 11.4921 29.1613 12.1371L29.1613 12.1371L23.6863 17.4738L23.6862 17.4739C23.4407 17.7133 23.257 18.0089 23.1511 18.3351C23.0452 18.6612 23.0202 19.0083 23.0782 19.3463L24.3704 26.8819L24.3704 26.882C24.5268 27.793 23.5703 28.4883 22.7516 28.0581L15.9845 24.5006L15.9842 24.5005C15.6806 24.3411 15.3428 24.2579 14.9999 24.2579C14.657 24.2579 14.3193 24.3411 14.0157 24.5005L14.0154 24.5006L7.24818 28.0582L7.24813 28.0582C6.42984 28.4886 5.47302 27.7934 5.62946 26.882L5.62947 26.8819L6.9217 19.3463C6.9797 19.0083 6.95465 18.6612 6.84873 18.3351C6.74281 18.0089 6.55919 17.7133 6.31369 17.4739L6.31358 17.4738L0.838692 12.1372C0.176389 11.4913 0.542021 10.3673 1.45682 10.2347L1.457 10.2346L9.0231 9.13517C9.36263 9.08599 9.68509 8.95495 9.96267 8.75333C10.2402 8.55174 10.4646 8.28564 10.6163 7.97801C10.6163 7.97798 10.6164 7.97795 10.6164 7.97792L13.9999 1.12194L14 1.12174C14.4086 0.292951 15.5906 0.292495 15.9999 1.12192Z" stroke="#ED8A19"/>
</svg>
