<svg width="547" height="547" viewBox="0 0 547 547" fill="none" xmlns="http://www.w3.org/2000/svg">
<ellipse cx="320.508" cy="198.501" rx="47.0078" ry="48.9309" fill="white"/>
<ellipse cx="423.925" cy="344.225" rx="47.0078" ry="48.9309" fill="white"/>
<path d="M176.404 77.8252H196.416L205.681 78.5664L208.275 79.3076L207.534 84.1253L202.346 108.585L184.557 191.598L180.11 211.981L176.774 227.917L174.921 234.587H212.352L212.722 231.252L217.169 205.31L219.764 190.486L222.728 174.551L224.952 165.656L228.287 156.392L233.105 146.385L237.552 139.344L242.37 132.673L243.852 130.82H244.594L245.335 129.338L248.67 125.632L253.117 121.185L256.082 118.591L261.641 114.144L267.2 110.438L275.724 105.62L282.024 102.655L291.289 99.3198L303.148 96.355L310.93 95.2432L316.119 94.8726H325.013L333.907 95.6138L340.949 96.7256L352.066 99.6904L360.22 102.655L368.743 106.732L375.043 110.438L381.344 114.885L387.273 119.703L392.832 124.891L397.65 130.079L402.467 136.379L406.544 142.68L410.991 150.462L414.697 158.615L418.033 168.621L419.885 177.145L420.997 186.039L421.368 190.857V198.269L420.256 210.869L416.18 234.958L415.438 239.405L435.821 242.741L452.498 246.076L469.545 250.523L477.699 253.488L486.963 258.306L492.893 262.012L498.823 266.459L502.899 269.794L510.311 276.465L514.758 281.283L518.835 286.1L524.394 293.512L528.47 300.183L533.659 310.189L537.364 319.083L539.588 326.125L542.182 336.131L543.665 345.766L544.035 351.696V365.037L542.923 376.155L541.441 384.308L538.476 394.685L535.882 401.726L531.435 411.362L527.358 418.403L522.541 425.444L518.464 430.633L514.388 435.08L507.346 442.121L503.27 445.457L496.97 450.274L489.928 454.722L481.034 459.539L472.14 463.245L461.392 466.581L450.645 469.175H416.55L402.467 466.21L380.232 462.133L310.93 449.163L221.617 432.486L204.199 429.15L189.745 426.556L184.928 425.074L181.963 422.85L179.739 419.885L178.257 416.18V411.362L179.739 407.285L182.333 403.95L183.075 398.02L184.928 388.755L187.892 371.337L191.228 352.437L196.416 323.16L201.975 291.659L204.94 274.982L205.31 273.5H167.139L166.398 277.577L162.321 297.589L158.615 314.636L154.168 335.76L147.497 366.89L142.68 389.497L135.268 424.333L129.709 450.645L126.373 466.581L125.632 469.175H50.4011L50.7717 466.21L55.96 441.38L61.519 415.438L66.7073 390.979L71.1545 370.226L75.9722 347.619L81.9018 319.825L88.9431 286.841L94.1314 262.753L97.4668 246.817L100.802 231.252L118.591 147.868L124.52 119.703L125.632 114.885L118.22 118.22L110.438 122.297L103.767 126.373L99.6904 129.338L95.2432 132.673L90.0549 137.121L85.6077 141.197L80.79 146.385L76.7134 151.574L71.8957 158.245L66.7073 167.139L63.372 174.18L59.666 183.816L57.0718 193.081L54.8482 203.087L53.3659 216.058L52.9953 221.617V234.587L53.7365 244.223L54.8482 251.264L55.96 254.97L59.666 263.123V264.606H54.1071L44.4716 263.864L37.0596 262.382L30.0183 260.159L25.5711 258.306L20.3828 255.341L16.6768 252.376L14.0827 249.782L10.3767 244.223L8.15313 239.776L5.92955 232.734L4.44716 224.952L4.07657 221.246V208.275L4.81776 201.234L6.67074 192.71L10.7473 180.48L14.4533 172.698L20.0122 163.433L24.83 156.762L28.9065 151.574L32.2419 147.868L34.8361 144.903L39.2832 140.085L43.7304 135.638L46.6951 133.044L50.4011 129.709L59.666 122.297L64.8543 118.591L70.7839 114.514L78.5664 109.696L87.0901 104.879L100.432 98.208L111.549 93.3902L124.52 88.5725L131.191 86.3489L143.791 83.0135L157.133 80.4194L168.992 78.5664L176.404 77.8252ZM316.489 164.545L310.93 165.656L305.371 167.88L300.924 170.845L297.218 174.18L294.624 177.145L291.659 181.963L289.806 186.41L288.694 191.228L288.324 194.192V198.64L289.436 204.569L291.659 210.499L294.253 214.575L297.218 218.281L302.407 222.358L306.483 224.581L310.93 226.434L317.23 227.546H323.16L327.607 226.805L332.425 224.952L337.984 221.987L342.06 218.652L345.396 214.946L348.731 209.016L349.843 206.422L350.955 201.234L351.325 197.898V193.822L350.584 188.263L348.36 182.333L345.025 176.774L341.319 172.698L335.76 168.621L330.201 166.027L326.125 164.915L323.53 164.545H316.489ZM421.738 312.413L415.809 313.524L410.991 315.377L406.915 317.601L402.838 320.936L399.503 324.642L396.909 328.719L394.314 334.648L393.203 339.466L392.832 342.06V346.507L394.314 353.549L396.909 359.478L400.244 364.296L404.691 368.743L410.621 372.449L415.809 374.302L421.368 375.414H428.039L434.709 373.932L440.639 370.967L445.457 367.631L448.421 364.667L451.757 359.849L454.351 354.29L455.833 348.36V339.837L453.98 332.795L450.274 325.754L446.198 320.936L441.38 317.23L435.451 314.266L429.521 312.783L426.927 312.413H421.738Z" fill="#8B0000"/>
<path d="M456.945 247.558L459.91 247.929L471.769 251.264L479.181 254.229L486.963 258.306L492.893 262.012L498.822 266.459L502.899 269.794L510.311 276.465L514.758 281.283L518.835 286.1L524.394 293.512L528.47 300.183L533.659 310.189L537.365 319.083L539.588 326.125L542.182 336.131L543.665 345.766L544.035 351.696V365.037L542.923 376.155L541.441 384.308L538.476 394.685L535.882 401.726L531.435 411.362L527.358 418.403L522.541 425.444L518.464 430.633L514.388 435.08L507.346 442.121L503.27 445.457L496.97 450.274L489.928 454.722L481.034 459.539L472.14 463.245L461.392 466.581L450.645 469.175H416.55L402.467 466.21L380.232 462.133L310.93 449.163L221.617 432.486L204.199 429.15L189.745 426.556L184.928 425.074L181.963 422.85L179.739 419.886L178.257 416.18V411.362L179.739 407.285L182.333 403.95L182.704 402.097L274.241 418.403L293.512 421.738L308.336 424.333L330.942 428.409L360.59 433.598L379.12 436.933L404.691 441.38L418.774 443.233L430.262 444.345H437.304L446.939 443.233L456.204 441.38L466.21 438.045L472.14 435.451L479.181 431.374L485.481 426.927L490.299 422.85L494.005 419.515L497.711 415.438L500.675 411.732L505.123 405.432L509.199 398.391L512.164 392.461L515.499 385.42L518.464 378.379L521.799 367.631L523.652 358.737L524.394 353.549L524.764 348.36V337.984L523.282 325.754L521.058 316.119L517.723 306.112L513.646 297.218L509.199 289.436L505.123 283.506L499.934 277.206L496.599 273.5L492.152 269.053L488.075 265.718L484.369 262.753L478.81 259.047L473.993 256.082L465.469 251.635L461.763 249.782L456.945 247.929V247.558Z" fill="#D2B48C"/>
<path d="M255.711 272.018H259.047L263.494 273.129L267.2 275.353L270.165 278.318L272.388 282.765L272.759 284.247V290.177L272.018 297.218V301.665L272.759 308.336L274.241 314.636L276.835 321.678L280.171 327.978L283.506 332.795L287.953 337.984L293.142 342.431L298.701 346.137L304.63 349.102L312.413 351.696L319.454 353.178L327.607 354.661L332.054 356.884L334.648 359.108L337.243 363.555L337.984 366.149V371.337L336.872 375.043L335.019 378.379L332.795 380.973L328.348 383.567L325.754 384.308H319.825L310.189 382.826L302.407 380.973L293.883 378.008L285.359 373.932L278.688 369.855L274.241 366.52L270.906 363.925L265.347 358.737L261.27 354.29L257.564 349.472L253.858 343.913L250.523 337.984L247.558 331.684L244.223 321.678L242.741 315.377L241.629 306.483V292.03L242.37 285.359L243.852 280.541L246.076 277.206L249.782 274.241L254.229 272.388L255.711 272.018Z" fill="#D2B48C"/>
<path d="M420.256 296.106H428.409L435.451 297.218L441.38 299.071L448.421 302.406L454.351 306.483L460.281 312.042L464.357 317.23L467.692 323.16L470.287 330.201L472.14 338.354L472.51 346.137L471.769 351.696L469.916 359.108L467.692 364.667L463.986 371.337L458.798 377.637L456.945 379.12L455.092 380.973L449.904 384.679L445.457 387.273L437.674 390.238L431.003 391.72L426.927 392.091H422.109L416.55 391.35L411.362 390.238L405.432 388.014L399.503 385.049L393.203 380.602L388.014 375.414L384.679 370.967L381.344 365.037L379.12 359.849L377.638 354.29L376.896 350.213V337.984L378.379 330.572L380.602 324.642L384.308 317.601L389.126 311.671L393.203 307.595L397.65 304.259L403.209 300.924L410.621 297.959L414.697 296.848L420.256 296.106ZM421.739 312.413L415.809 313.524L410.991 315.377L406.915 317.601L402.838 320.936L399.503 324.642L396.909 328.719L394.314 334.648L393.203 339.466L392.832 342.06V346.507L394.314 353.549L396.909 359.478L400.244 364.296L404.691 368.743L410.621 372.449L415.809 374.302L421.368 375.414H428.039L434.709 373.932L440.639 370.967L445.457 367.631L448.421 364.667L451.757 359.849L454.351 354.29L455.833 348.36V339.837L453.98 332.795L450.274 325.754L446.198 320.936L441.38 317.23L435.451 314.266L429.521 312.783L426.927 312.413H421.739Z" fill="#D2B48C"/>
<path d="M316.86 148.239H323.531L331.313 149.35L337.984 151.574L345.766 155.65L350.584 159.356L354.29 162.692L357.625 166.398L361.331 171.957L364.667 178.998L367.261 187.892L367.631 190.857V200.863L366.52 207.163L363.925 214.946L359.849 222.728L355.031 228.658L350.584 233.105L344.654 237.182L338.354 240.517L334.278 241.999L325.754 243.852H313.895L304.63 241.629L297.589 238.664L292.771 235.699L288.324 232.364L283.136 227.176L278.688 220.875L274.612 212.352L272.759 205.31L272.018 200.493V192.71L273.129 185.298L274.241 180.851L276.094 176.774L279.059 170.845L281.653 167.139L282.024 166.398H282.765L283.506 164.915L289.065 159.356L293.512 156.021L300.183 152.315L305.742 150.092L312.413 148.609L316.86 148.239ZM316.489 164.545L310.93 165.657L305.371 167.88L300.924 170.845L297.218 174.18L294.624 177.145L291.659 181.963L289.806 186.41L288.694 191.228L288.324 194.192V198.64L289.436 204.569L291.659 210.499L294.253 214.575L297.218 218.281L302.407 222.358L306.483 224.581L310.93 226.434L317.23 227.546H323.16L327.607 226.805L332.425 224.952L337.984 221.987L342.06 218.652L345.396 214.946L348.731 209.016L349.843 206.422L350.955 201.234L351.325 197.898V193.822L350.584 188.263L348.36 182.333L345.025 176.774L341.319 172.698L335.76 168.621L330.201 166.027L326.125 164.915L323.531 164.545H316.489Z" fill="#D2B48C"/>
<path d="M256.453 281.653H259.417L262.382 283.877L263.123 285.359V291.289L262.753 294.624V305.371L264.235 313.895L266.088 320.195L268.312 325.754L271.276 331.684L275.353 337.613L279.43 342.802L284.247 347.619L290.177 352.066L295.736 355.402L302.777 358.737L311.671 361.331L324.642 363.925L327.236 365.408L328.348 367.261V370.596L326.866 373.19L324.642 374.673H319.083L309.077 372.82L301.295 370.596L294.995 368.002L289.065 365.037L284.247 362.073L279.059 358.367L274.241 353.919L271.276 351.325L268.682 348.36L264.606 343.172L259.047 333.907L255.341 325.754L253.117 318.342L251.264 308.707L250.894 305.742V291.659L251.635 287.212L253.117 283.877L255.341 282.024L256.453 281.653Z" fill="white"/>
<path d="M316.86 148.239H323.531L331.313 149.35L337.984 151.574L345.766 155.65L350.584 159.356L354.29 162.692L357.625 166.398L361.331 171.957L364.667 178.998L367.261 187.892L367.631 190.857V200.863L366.52 207.163L363.925 214.946L359.849 222.728L355.031 228.658L350.584 233.105L344.654 237.182L338.354 240.517L334.278 241.999L325.754 243.852H313.895L304.63 241.629L303.889 240.888L306.483 241.258L312.042 242.37L315.377 242.741H323.16L329.831 241.999L336.872 239.776L340.578 238.293L346.137 235.329L349.472 232.734L351.325 230.881L352.808 230.14L353.178 229.028H353.919L354.661 227.546L355.772 226.064H356.514L357.255 224.211L360.22 220.134L363.555 213.093L365.408 207.534L366.52 201.234V191.228L366.149 187.892L365.037 184.557L363.184 178.257L360.22 172.327L356.884 167.139L353.549 163.433L349.472 159.356L346.507 157.133L342.431 154.909L337.243 152.315L332.425 150.833L324.272 149.721H316.489L309.077 150.833L303.148 152.686L299.812 154.168L295.365 156.392L292.03 158.615L288.324 161.58L284.989 164.915L284.247 166.027H283.506L283.136 167.51L279.8 171.957L279.43 173.439H278.688L277.947 176.404H277.206L276.835 178.257L275.353 181.963L274.241 187.522L273.871 188.634L273.5 192.71V204.199L274.612 209.387L274.241 210.869L272.759 205.31L272.018 200.493V192.71L273.129 185.298L274.241 180.851L276.094 176.774L279.059 170.845L281.653 167.139L282.024 166.398H282.765L283.506 164.915L289.065 159.356L293.512 156.021L300.183 152.315L305.742 150.092L312.413 148.609L316.86 148.239Z" fill="#D2B48C"/>
<path d="M456.204 308.707L457.686 309.448L461.022 312.783L464.728 317.972L467.692 323.16L470.287 330.201L472.14 338.354L472.51 346.137L471.769 351.696L469.916 359.108L467.692 364.667L463.986 371.337L458.798 377.638L456.945 379.12L455.092 380.973L449.904 384.679L445.457 387.273L437.674 390.238L431.003 391.72L426.927 392.091H422.109L416.55 391.35L411.362 390.238L405.432 388.014L399.503 385.049L393.203 380.602L388.014 375.414L385.42 372.079L385.791 371.337L390.238 376.526L393.203 379.491L398.762 383.567L402.467 385.791L408.768 388.385L416.921 390.238H431.003L438.415 388.755L444.345 386.532L449.904 383.567L451.757 382.826V382.085L453.98 380.602H454.722V379.861L456.945 378.008H457.686L458.427 376.526L463.245 370.596L466.951 363.925L468.434 359.849L469.916 354.29L471.028 347.619V340.949L470.287 337.984L469.545 333.166L468.063 327.607L465.469 321.678L462.133 316.119L461.392 314.266H460.651L459.91 312.413H459.169L456.575 309.448L456.204 308.707Z" fill="#D2B48C"/>
<path d="M420.256 296.106H428.409L435.451 297.218L441.38 299.071L448.421 302.406L454.351 306.483L455.463 307.965L453.98 307.224L448.421 303.518L442.492 300.553L437.674 298.7L430.633 297.589L424.703 297.218L414.327 297.959L408.397 299.812L403.95 301.665L398.02 305.001L397.279 304.63L402.468 301.295L409.509 298.33L414.697 296.848L420.256 296.106Z" fill="#D2B48C"/>
<path d="M184.927 402.838L188.633 403.209L217.911 408.397L255.341 415.068V415.438H252.005L246.446 414.327L235.329 412.474L229.77 411.362L218.281 409.509L212.352 408.397L199.01 406.173L192.71 405.062L187.892 403.95L184.927 403.209V402.838Z" fill="#D2B48C"/>
<path d="M277.947 218.652L279.059 219.764L281.653 223.469L284.247 226.805L285.359 227.917V228.658H286.1L288.694 231.623L291.289 233.846H290.177L286.471 230.511L283.135 227.175L278.688 220.875L277.947 218.652Z" fill="#D2B48C"/>
<path d="M396.538 305.001L397.279 305.371L392.832 309.448L386.902 315.377V314.266L390.979 309.818L395.426 305.742L396.538 305.001Z" fill="#D2B48C"/>
<path d="M255.711 272.018H259.047L263.494 273.129L264.235 273.871L262.382 273.5H253.488L251.264 273.871L252.005 273.129L255.711 272.018Z" fill="#D2B48C"/>
</svg>
