<svg width="61" height="54" viewBox="0 0 61 61" fill="none" xmlns="http://www.w3.org/2000/svg">
<path d="M38.125 48.2917C37.7905 48.2936 37.4589 48.2295 37.1492 48.103C36.8395 47.9765 36.5579 47.7902 36.3204 47.5546L21.0704 32.3046C20.597 31.8284 20.3313 31.1842 20.3313 30.5127C20.3313 29.8412 20.597 29.1971 21.0704 28.7208L36.3204 13.4708C36.8066 13.0544 37.4321 12.8369 38.0717 12.8616C38.7114 12.8863 39.3182 13.1515 39.7709 13.6041C40.2235 14.0568 40.4887 14.6636 40.5134 15.3032C40.5381 15.9429 40.3205 16.5684 39.9041 17.0546L26.4587 30.5L39.9041 43.9454C40.261 44.2994 40.505 44.7513 40.6051 45.2439C40.7052 45.7365 40.657 46.2477 40.4665 46.7129C40.2761 47.1781 39.952 47.5764 39.5352 47.8574C39.1184 48.1385 38.6277 48.2896 38.125 48.2917Z" fill="#413636"/>
</svg>
