<svg width="61" height="54" viewBox="0 0 61 61" fill="none" xmlns="http://www.w3.org/2000/svg">
<path d="M22.8753 12.7084C23.2098 12.7064 23.5414 12.7706 23.851 12.897C24.1607 13.0235 24.4424 13.2099 24.6798 13.4455L39.9298 28.6955C40.4032 29.1717 40.6689 29.8159 40.6689 30.4873C40.6689 31.1588 40.4032 31.803 39.9298 32.2792L24.6798 47.5292C24.1936 47.9456 23.5682 48.1632 22.9285 48.1385C22.2888 48.1138 21.682 47.8486 21.2294 47.3959C20.7767 46.9433 20.5115 46.3365 20.4868 45.6968C20.4621 45.0571 20.6797 44.4317 21.0961 43.9455L34.5415 30.5L21.0961 17.0546C20.7392 16.7006 20.4953 16.2488 20.3952 15.7562C20.2951 15.2636 20.3433 14.7523 20.5337 14.2871C20.7241 13.8219 21.0482 13.4236 21.465 13.1426C21.8818 12.8616 22.3726 12.7105 22.8753 12.7084Z" fill="#413636"/>
</svg>
